<svg xmlns="http://www.w3.org/2000/svg" width="1901.991" height="922.256" viewBox="0 0 1901.991 922.256"><g id="bg" opacity=".57" transform="translate(-44 -58)"><path id="health-cross" fill="#fff" d="M35.75 54.5h-12.5a4.17 4.17 0 0 1-4.167-4.167V39.917H8.667A4.17 4.17 0 0 1 4.5 35.75v-12.5a4.17 4.17 0 0 1 4.167-4.167h10.416V8.667A4.17 4.17 0 0 1 23.25 4.5h12.5a4.17 4.17 0 0 1 4.167 4.167v10.416h10.416A4.17 4.17 0 0 1 54.5 23.25v12.5a4.17 4.17 0 0 1-4.167 4.167H39.917v10.416A4.17 4.17 0 0 1 35.75 54.5M8.667 23.25v12.5H23.25v14.583h12.5V35.75h14.583v-12.5H35.75V8.667h-12.5V23.25Z" opacity=".16" transform="translate(181.425 231.11)"/><path id="health-cross-2" fill="#fff" d="M52.538 81.361H33.323a6.41 6.41 0 0 1-6.405-6.405V58.943H10.905A6.41 6.41 0 0 1 4.5 52.538V33.323a6.41 6.41 0 0 1 6.405-6.405h16.013V10.905A6.41 6.41 0 0 1 33.323 4.5h19.215a6.41 6.41 0 0 1 6.405 6.405v16.013h16.013a6.41 6.41 0 0 1 6.405 6.405v19.215a6.414 6.414 0 0 1-6.405 6.405H58.943v16.013a6.414 6.414 0 0 1-6.405 6.405M10.905 33.323v19.215h22.418v22.418h19.215V52.538h22.418V33.323H52.538V10.905H33.323v22.418Z" data-name="health-cross" opacity=".16" transform="translate(1524.31 799.603)"/><path id="health-cross-3" fill="#fff" d="M35.75 54.5h-12.5a4.17 4.17 0 0 1-4.167-4.167V39.917H8.667A4.17 4.17 0 0 1 4.5 35.75v-12.5a4.17 4.17 0 0 1 4.167-4.167h10.416V8.667A4.17 4.17 0 0 1 23.25 4.5h12.5a4.17 4.17 0 0 1 4.167 4.167v10.416h10.416A4.17 4.17 0 0 1 54.5 23.25v12.5a4.17 4.17 0 0 1-4.167 4.167H39.917v10.416A4.17 4.17 0 0 1 35.75 54.5M8.667 23.25v12.5H23.25v14.583h12.5V35.75h14.583v-12.5H35.75V8.667h-12.5V23.25Z" data-name="health-cross" opacity=".16" transform="translate(1488.53 382.136)"/><path id="health-cross-4" fill="#fff" d="M16.864 37.47h8.242a2.75 2.75 0 0 0 2.747-2.747v-6.869h6.869a2.75 2.75 0 0 0 2.747-2.747v-8.243a2.75 2.75 0 0 0-2.747-2.747h-6.868v-6.87A2.75 2.75 0 0 0 25.106 4.5h-8.242a2.75 2.75 0 0 0-2.747 2.747v6.869h-6.87A2.75 2.75 0 0 0 4.5 16.864v8.242a2.75 2.75 0 0 0 2.747 2.747h6.869v6.869a2.75 2.75 0 0 0 2.747 2.747Zm17.858-20.606v8.242h-9.616v9.616h-8.242v-9.616H7.247v-8.242h9.616V7.247h8.242v9.616Z" data-name="health-cross" opacity=".16" transform="translate(1881.04 399.363)"/><path id="health-cross-5" fill="#fff" d="M16.864 37.47h8.242a2.75 2.75 0 0 0 2.747-2.747v-6.869h6.869a2.75 2.75 0 0 0 2.747-2.747v-8.243a2.75 2.75 0 0 0-2.747-2.747h-6.868v-6.87A2.75 2.75 0 0 0 25.106 4.5h-8.242a2.75 2.75 0 0 0-2.747 2.747v6.869h-6.87A2.75 2.75 0 0 0 4.5 16.864v8.242a2.75 2.75 0 0 0 2.747 2.747h6.869v6.869a2.75 2.75 0 0 0 2.747 2.747Zm17.858-20.606v8.242h-9.616v9.616h-8.242v-9.616H7.247v-8.242h9.616V7.247h8.242v9.616Z" data-name="health-cross" opacity=".16" transform="translate(731.456 942.786)"/><path id="health-cross-6" fill="#fff" d="M23.25 34.5h-7.5a2.5 2.5 0 0 1-2.5-2.5v-6.25H7a2.5 2.5 0 0 1-2.5-2.5v-7.5a2.5 2.5 0 0 1 2.5-2.5h6.25V7a2.5 2.5 0 0 1 2.5-2.5h7.5a2.5 2.5 0 0 1 2.5 2.5v6.25H32a2.5 2.5 0 0 1 2.5 2.5v7.5a2.5 2.5 0 0 1-2.5 2.5h-6.25V32a2.5 2.5 0 0 1-2.5 2.5M7 15.75v7.5h8.75V32h7.5v-8.75H32v-7.5h-8.75V7h-7.5v8.75Z" data-name="health-cross" opacity=".16" transform="translate(1267.91 744.289)"/><path id="health-cross-7" fill="#fff" d="M23.25 34.5h-7.5a2.5 2.5 0 0 1-2.5-2.5v-6.25H7a2.5 2.5 0 0 1-2.5-2.5v-7.5a2.5 2.5 0 0 1 2.5-2.5h6.25V7a2.5 2.5 0 0 1 2.5-2.5h7.5a2.5 2.5 0 0 1 2.5 2.5v6.25H32a2.5 2.5 0 0 1 2.5 2.5v7.5a2.5 2.5 0 0 1-2.5 2.5h-6.25V32a2.5 2.5 0 0 1-2.5 2.5M7 15.75v7.5h8.75V32h7.5v-8.75H32v-7.5h-8.75V7h-7.5v8.75Z" data-name="health-cross" opacity=".16" transform="translate(1358.77 237.062)"/><path id="health-cross-8" fill="#fff" d="M42.724 65.658h-15.29a5.1 5.1 0 0 1-5.1-5.1V47.82H9.6a5.1 5.1 0 0 1-5.1-5.1V27.434a5.1 5.1 0 0 1 5.1-5.1h12.738V9.6a5.1 5.1 0 0 1 5.1-5.1h15.286a5.1 5.1 0 0 1 5.1 5.1v12.738h12.737a5.1 5.1 0 0 1 5.1 5.1v15.286a5.1 5.1 0 0 1-5.1 5.1H47.82v12.737a5.1 5.1 0 0 1-5.1 5.1ZM9.6 27.434v15.29h17.834v17.837h15.29V42.724h17.837v-15.29H42.724V9.6h-15.29v17.834Z" data-name="health-cross" opacity=".16" transform="translate(483.225 572.66)"/><path id="health-cross-9" fill="#fff" d="M23.25 34.5h-7.5a2.5 2.5 0 0 1-2.5-2.5v-6.25H7a2.5 2.5 0 0 1-2.5-2.5v-7.5a2.5 2.5 0 0 1 2.5-2.5h6.25V7a2.5 2.5 0 0 1 2.5-2.5h7.5a2.5 2.5 0 0 1 2.5 2.5v6.25H32a2.5 2.5 0 0 1 2.5 2.5v7.5a2.5 2.5 0 0 1-2.5 2.5h-6.25V32a2.5 2.5 0 0 1-2.5 2.5M7 15.75v7.5h8.75V32h7.5v-8.75H32v-7.5h-8.75V7h-7.5v8.75Z" data-name="health-cross" opacity=".16" transform="translate(524.991 98.755)"/><path id="health-cross-10" fill="#fff" d="M15.75 34.5h7.5a2.5 2.5 0 0 0 2.5-2.5v-6.25H32a2.5 2.5 0 0 0 2.5-2.5v-7.5a2.5 2.5 0 0 0-2.5-2.5h-6.25V7a2.5 2.5 0 0 0-2.5-2.5h-7.5a2.5 2.5 0 0 0-2.5 2.5v6.25H7a2.5 2.5 0 0 0-2.5 2.5v7.5a2.5 2.5 0 0 0 2.5 2.5h6.25V32a2.5 2.5 0 0 0 2.5 2.5M32 15.75v7.5h-8.75V32h-7.5v-8.75H7v-7.5h8.75V7h7.5v8.75Z" data-name="health-cross" opacity=".16" transform="translate(216.158 638.473)"/><path id="health-cross-11" fill="#fff" d="M23.25 34.5h-7.5a2.5 2.5 0 0 1-2.5-2.5v-6.25H7a2.5 2.5 0 0 1-2.5-2.5v-7.5a2.5 2.5 0 0 1 2.5-2.5h6.25V7a2.5 2.5 0 0 1 2.5-2.5h7.5a2.5 2.5 0 0 1 2.5 2.5v6.25H32a2.5 2.5 0 0 1 2.5 2.5v7.5a2.5 2.5 0 0 1-2.5 2.5h-6.25V32a2.5 2.5 0 0 1-2.5 2.5M7 15.75v7.5h8.75V32h7.5v-8.75H32v-7.5h-8.75V7h-7.5v8.75Z" data-name="health-cross" opacity=".16" transform="translate(1812.78 768.445)"/><path id="health-cross-12" fill="#fff" d="M11.918 24.282h4.945a1.65 1.65 0 0 0 1.648-1.648v-4.122h4.121a1.65 1.65 0 0 0 1.648-1.648v-4.946a1.65 1.65 0 0 0-1.648-1.648h-4.12V6.148A1.65 1.65 0 0 0 16.864 4.5h-4.946a1.65 1.65 0 0 0-1.648 1.648v4.122H6.148A1.65 1.65 0 0 0 4.5 11.918v4.945a1.65 1.65 0 0 0 1.648 1.648h4.122v4.121a1.65 1.65 0 0 0 1.648 1.648Zm10.715-12.364v4.945h-5.77v5.77h-4.945v-5.77h-5.77v-4.945h5.77v-5.77h4.945v5.77Z" data-name="health-cross" opacity=".16" transform="translate(768.062 655.084)"/><path id="health-cross-13" fill="#fff" d="M11.918 24.282h4.945a1.65 1.65 0 0 0 1.648-1.648v-4.122h4.121a1.65 1.65 0 0 0 1.648-1.648v-4.946a1.65 1.65 0 0 0-1.648-1.648h-4.12V6.148A1.65 1.65 0 0 0 16.864 4.5h-4.946a1.65 1.65 0 0 0-1.648 1.648v4.122H6.148A1.65 1.65 0 0 0 4.5 11.918v4.945a1.65 1.65 0 0 0 1.648 1.648h4.122v4.121a1.65 1.65 0 0 0 1.648 1.648Zm10.715-12.364v4.945h-5.77v5.77h-4.945v-5.77h-5.77v-4.945h5.77v-5.77h4.945v5.77Z" data-name="health-cross" opacity=".16" transform="translate(803.564 128.755)"/><path id="health-cross-14" fill="#fff" d="M14.5 20.5h-4a1.335 1.335 0 0 1-1.333-1.333v-3.334H5.833A1.335 1.335 0 0 1 4.5 14.5v-4a1.335 1.335 0 0 1 1.333-1.333h3.334V5.833A1.335 1.335 0 0 1 10.5 4.5h4a1.335 1.335 0 0 1 1.333 1.333v3.334h3.333A1.335 1.335 0 0 1 20.5 10.5v4a1.335 1.335 0 0 1-1.333 1.333h-3.334v3.333A1.335 1.335 0 0 1 14.5 20.5m-8.667-10v4H10.5v4.667h4V14.5h4.667v-4H14.5V5.833h-4V10.5Z" data-name="health-cross" opacity=".16" transform="translate(498.235 227.255)"/><path id="health-cross-15" fill="#fff" d="M10.5 20.5h4a1.335 1.335 0 0 0 1.333-1.333v-3.334h3.333A1.335 1.335 0 0 0 20.5 14.5v-4a1.335 1.335 0 0 0-1.333-1.333h-3.334V5.833A1.335 1.335 0 0 0 14.5 4.5h-4a1.335 1.335 0 0 0-1.333 1.333v3.334H5.833A1.335 1.335 0 0 0 4.5 10.5v4a1.335 1.335 0 0 0 1.333 1.333h3.334v3.333A1.335 1.335 0 0 0 10.5 20.5m8.667-10v4H14.5v4.667h-4V14.5H5.833v-4H10.5V5.833h4V10.5Z" data-name="health-cross" opacity=".16" transform="translate(253.767 752.202)"/><path id="health-cross-16" fill="#fff" d="M14.5 20.5h-4a1.335 1.335 0 0 1-1.333-1.333v-3.334H5.833A1.335 1.335 0 0 1 4.5 14.5v-4a1.335 1.335 0 0 1 1.333-1.333h3.334V5.833A1.335 1.335 0 0 1 10.5 4.5h4a1.335 1.335 0 0 1 1.333 1.333v3.334h3.333A1.335 1.335 0 0 1 20.5 10.5v4a1.335 1.335 0 0 1-1.333 1.333h-3.334v3.333A1.335 1.335 0 0 1 14.5 20.5m-8.667-10v4H10.5v4.667h4V14.5h4.667v-4H14.5V5.833h-4V10.5Z" data-name="health-cross" opacity=".16" transform="translate(1800.54 376.618)"/><path id="health-cross-17" fill="#fff" d="M8.456 15.05h2.638a.88.88 0 0 0 .879-.879v-2.2h2.2a.88.88 0 0 0 .879-.879V8.456a.88.88 0 0 0-.879-.879h-2.2v-2.2a.88.88 0 0 0-.879-.879H8.456a.88.88 0 0 0-.879.879v2.2h-2.2a.88.88 0 0 0-.879.879v2.638a.88.88 0 0 0 .879.879h2.2v2.2a.88.88 0 0 0 .879.879Zm5.715-6.594v2.638h-3.077v3.077H8.456v-3.077H5.379V8.456h3.077V5.379h2.638v3.077Z" data-name="health-cross" opacity=".16" transform="translate(1725.76 395.668)"/><g id="Icon_atom" opacity=".16" transform="rotate(-30 2104.78 -1670.47)"><g id="Icon_atom-2" stroke="#fff" stroke-width="4" data-name="Icon_atom"><circle id="Oval" cx="2.564" cy="2.564" r="2.564" transform="translate(28.697 28.697)"/><ellipse id="Oval-2" cx="13.603" cy="30.606" fill="none" stroke-miterlimit="10" data-name="Oval" rx="13.603" ry="30.606" transform="rotate(-45 23.221 9.619)"/><ellipse id="Oval-3" cx="13.603" cy="30.606" fill="none" stroke-miterlimit="10" data-name="Oval" rx="13.603" ry="30.606" transform="rotate(45 21.642 52.248)"/></g></g><g id="Icon_atom-3" data-name="Icon_atom" opacity=".16" transform="translate(1579.62 74.148)"><g id="Icon_atom-4" stroke="#fff" stroke-width="4" data-name="Icon_atom"><circle id="Oval-4" cx="2.564" cy="2.564" r="2.564" data-name="Oval" transform="translate(28.697 28.697)"/><ellipse id="Oval-5" cx="13.603" cy="30.606" fill="none" stroke-miterlimit="10" data-name="Oval" rx="13.603" ry="30.606" transform="rotate(-45 23.221 9.619)"/><ellipse id="Oval-6" cx="13.603" cy="30.606" fill="none" stroke-miterlimit="10" data-name="Oval" rx="13.603" ry="30.606" transform="rotate(45 21.642 52.248)"/></g></g><g id="Icon_atom-5" data-name="Icon_atom" opacity=".16" transform="translate(1185.53 81.024)"><g id="Icon_atom-6" stroke="#fff" data-name="Icon_atom"><circle id="Oval-7" cx="1" cy="1" r="1" stroke-width="1" data-name="Oval" transform="translate(11.192 11.192)"/><ellipse id="Oval-8" cx="5.305" cy="11.937" fill="none" stroke-miterlimit="10" stroke-width="2" data-name="Oval" rx="5.305" ry="11.937" transform="rotate(-45 9.057 3.752)"/><ellipse id="Oval-9" cx="5.305" cy="11.937" fill="none" stroke-miterlimit="10" stroke-width="2" data-name="Oval" rx="5.305" ry="11.937" transform="rotate(45 8.441 20.378)"/></g></g><g id="Icon_atom-7" data-name="Icon_atom" opacity=".16" transform="translate(330.472 477.358)"><g id="Icon_atom-8" stroke="#fff" data-name="Icon_atom"><circle id="Oval-10" cx="1" cy="1" r="1" stroke-width="1" data-name="Oval" transform="translate(11.192 11.192)"/><ellipse id="Oval-11" cx="5.305" cy="11.937" fill="none" stroke-miterlimit="10" stroke-width="2" data-name="Oval" rx="5.305" ry="11.937" transform="rotate(-45 9.057 3.752)"/><ellipse id="Oval-12" cx="5.305" cy="11.937" fill="none" stroke-miterlimit="10" stroke-width="2" data-name="Oval" rx="5.305" ry="11.937" transform="rotate(45 8.441 20.378)"/></g></g><g id="Icon_atom-9" data-name="Icon_atom" opacity=".16" transform="translate(1680.08 627.117)"><g id="Icon_atom-10" stroke="#fff" data-name="Icon_atom"><circle id="Oval-13" cx="1" cy="1" r="1" stroke-width="1" data-name="Oval" transform="translate(11.192 11.192)"/><ellipse id="Oval-14" cx="5.305" cy="11.937" fill="none" stroke-miterlimit="10" stroke-width="2" data-name="Oval" rx="5.305" ry="11.937" transform="rotate(-45 9.057 3.752)"/><ellipse id="Oval-15" cx="5.305" cy="11.937" fill="none" stroke-miterlimit="10" stroke-width="2" data-name="Oval" rx="5.305" ry="11.937" transform="rotate(45 8.441 20.378)"/></g></g><g id="Icon_atom-11" data-name="Icon_atom" opacity=".16" transform="translate(938.549 597.043)"><g id="Icon_atom-12" stroke="#fff" data-name="Icon_atom"><circle id="Oval-16" cx=".659" cy=".659" r=".659" stroke-width="1" data-name="Oval" transform="translate(7.38 7.38)"/><ellipse id="Oval-17" cx="3.498" cy="7.871" fill="none" stroke-miterlimit="10" stroke-width="2" data-name="Oval" rx="3.498" ry="7.871" transform="rotate(-45 5.972 2.474)"/><ellipse id="Oval-18" cx="3.498" cy="7.871" fill="none" stroke-miterlimit="10" stroke-width="2" data-name="Oval" rx="3.498" ry="7.871" transform="rotate(45 5.566 13.438)"/></g></g><g id="Icon_atom-13" data-name="Icon_atom" opacity=".16" transform="translate(988.672 85.005)"><g id="Icon_atom-14" stroke="#fff" data-name="Icon_atom"><circle id="Oval-19" cx=".659" cy=".659" r=".659" stroke-width="1" data-name="Oval" transform="translate(7.38 7.38)"/><ellipse id="Oval-20" cx="3.498" cy="7.871" fill="none" stroke-miterlimit="10" stroke-width="2" data-name="Oval" rx="3.498" ry="7.871" transform="rotate(-45 5.972 2.474)"/><ellipse id="Oval-21" cx="3.498" cy="7.871" fill="none" stroke-miterlimit="10" stroke-width="2" data-name="Oval" rx="3.498" ry="7.871" transform="rotate(45 5.566 13.438)"/></g></g><g id="Icon_heart_add" opacity=".16" transform="translate(679.722 838.346)"><g id="Icon_heart_add-2" fill="none" stroke="#fff" stroke-miterlimit="10" stroke-width="4" data-name="Icon_heart_add"><path id="Path" stroke-linecap="round" stroke-linejoin="round" d="M26.71 1.063a12.03 12.03 0 0 0-4.857 3.981A12.051 12.051 0 0 0 0 11.871 11.77 11.77 0 0 0 3.659 20.4l18.195 18.451 16.767-17"/><path id="Path-2" d="M14.569.5H0" data-name="Path" transform="translate(31.336 6.785)"/><path id="Path-3" d="M.5 0v14.569" data-name="Path" transform="translate(38.121)"/></g></g><g id="Icon_heart_add-3" data-name="Icon_heart_add" opacity=".16" transform="translate(707.402 299.641)"><g id="Icon_heart_add-4" fill="none" stroke="#fff" stroke-miterlimit="10" stroke-width="4" data-name="Icon_heart_add"><path id="Path-4" stroke-linecap="round" stroke-linejoin="round" d="M26.71 1.063a12.03 12.03 0 0 0-4.857 3.981A12.051 12.051 0 0 0 0 11.871 11.77 11.77 0 0 0 3.659 20.4l18.195 18.451 16.767-17" data-name="Path"/><path id="Path-5" d="M14.569.5H0" data-name="Path" transform="translate(31.336 6.785)"/><path id="Path-6" d="M.5 0v14.569" data-name="Path" transform="translate(38.121)"/></g></g><g id="Icon_heart_add-5" data-name="Icon_heart_add" opacity=".16" transform="translate(46 853.924)"><g id="Icon_heart_add-6" fill="none" stroke="#fff" stroke-miterlimit="10" stroke-width="4" data-name="Icon_heart_add"><path id="Path-7" stroke-linecap="round" stroke-linejoin="round" d="M26.71 1.063a12.03 12.03 0 0 0-4.857 3.981A12.051 12.051 0 0 0 0 11.871 11.77 11.77 0 0 0 3.659 20.4l18.195 18.451 16.767-17" data-name="Path"/><path id="Path-8" d="M14.569.5H0" data-name="Path" transform="translate(31.336 6.785)"/><path id="Path-9" d="M.5 0v14.569" data-name="Path" transform="translate(38.121)"/></g></g><g id="Icon_heart_add-7" data-name="Icon_heart_add" opacity=".16" transform="translate(1382.35 714.884)"><g id="Icon_heart_add-8" fill="none" stroke="#fff" stroke-miterlimit="10" stroke-width="4" data-name="Icon_heart_add"><path id="Path-10" stroke-linecap="round" stroke-linejoin="round" d="M17.613.7a7.94 7.94 0 0 0-3.2 2.625A7.946 7.946 0 0 0 0 7.828a7.76 7.76 0 0 0 2.413 5.624l12 12.167L25.466 14.41" data-name="Path"/><path id="Path-11" d="M9.607.5H0" data-name="Path" transform="translate(20.663 4.303)"/><path id="Path-12" d="M.5 0v9.607" data-name="Path" transform="translate(24.966)"/></g></g><g id="Icon_heart_add-9" data-name="Icon_heart_add" opacity=".16" transform="translate(1473.21 175.406)"><g id="Icon_heart_add-10" fill="none" stroke="#fff" stroke-miterlimit="10" stroke-width="4" data-name="Icon_heart_add"><path id="Path-13" stroke-linecap="round" stroke-linejoin="round" d="M17.613.7a7.94 7.94 0 0 0-3.2 2.625A7.946 7.946 0 0 0 0 7.828a7.76 7.76 0 0 0 2.413 5.624l12 12.167L25.466 14.41" data-name="Path"/><path id="Path-14" d="M9.607.5H0" data-name="Path" transform="translate(20.663 4.303)"/><path id="Path-15" d="M.5 0v9.607" data-name="Path" transform="translate(24.966)"/></g></g><g id="Icon_heart_add-11" data-name="Icon_heart_add" opacity=".16" transform="translate(626.72 589.189)"><g id="Icon_heart_add-12" fill="none" stroke="#fff" stroke-miterlimit="10" stroke-width="4" data-name="Icon_heart_add"><path id="Path-16" stroke-linecap="round" stroke-linejoin="round" d="M17.613.7a7.94 7.94 0 0 0-3.2 2.625A7.946 7.946 0 0 0 0 7.828a7.76 7.76 0 0 0 2.413 5.624l12 12.167L25.466 14.41" data-name="Path"/><path id="Path-17" d="M9.607.5H0" data-name="Path" transform="translate(20.663 4.303)"/><path id="Path-18" d="M.5 0v9.607" data-name="Path" transform="translate(24.966)"/></g></g><g id="Icon_heart_add-13" data-name="Icon_heart_add" opacity=".16" transform="translate(639.415 77.637)"><g id="Icon_heart_add-14" fill="none" stroke="#fff" stroke-miterlimit="10" stroke-width="4" data-name="Icon_heart_add" transform="translate(.001)"><path id="Path-19" stroke-linecap="round" stroke-linejoin="round" d="M17.613.7a7.94 7.94 0 0 0-3.2 2.625A7.946 7.946 0 0 0 0 7.828a7.76 7.76 0 0 0 2.413 5.624l12 12.167L25.466 14.41" data-name="Path"/><path id="Path-20" d="M9.607.5H0" data-name="Path" transform="translate(20.663 4.303)"/><path id="Path-21" d="M.5 0v9.607" data-name="Path" transform="translate(24.966)"/></g></g><g id="Icon_heart_add-15" data-name="Icon_heart_add" opacity=".16" transform="rotate(30 -1061.43 545.162)"><g id="Icon_heart_add-16" fill="none" stroke="#fff" stroke-miterlimit="10" stroke-width="4" data-name="Icon_heart_add" transform="translate(.001)"><path id="Path-22" stroke-linecap="round" stroke-linejoin="round" d="M17.613.7a7.94 7.94 0 0 0-3.2 2.625A7.946 7.946 0 0 0 0 7.828a7.76 7.76 0 0 0 2.413 5.624l12 12.167L25.466 14.41" data-name="Path"/><path id="Path-23" d="M9.607.5H0" data-name="Path" transform="translate(20.663 4.303)"/><path id="Path-24" d="M.5 0v9.607" data-name="Path" transform="translate(24.966)"/></g></g><g id="Icon_heart_add-17" data-name="Icon_heart_add" opacity=".16" transform="translate(1915.72 739.006)"><g id="Icon_heart_add-18" fill="none" stroke="#fff" stroke-miterlimit="10" stroke-width="4" data-name="Icon_heart_add"><path id="Path-25" stroke-linecap="round" stroke-linejoin="round" d="M17.613.7a7.94 7.94 0 0 0-3.2 2.625A7.946 7.946 0 0 0 0 7.828a7.76 7.76 0 0 0 2.413 5.624l12 12.167L25.466 14.41" data-name="Path"/><path id="Path-26" d="M9.607.5H0" data-name="Path" transform="translate(20.663 4.303)"/><path id="Path-27" d="M.5 0v9.607" data-name="Path" transform="translate(24.966)"/></g></g><g id="Icon_heart_add-19" data-name="Icon_heart_add" opacity=".16" transform="translate(1121.91 165.149)"><g id="Icon_heart_add-20" fill="none" stroke="#fff" stroke-miterlimit="10" stroke-width="4" data-name="Icon_heart_add"><path id="Path-28" stroke-linecap="round" stroke-linejoin="round" d="M26.71 1.063a12.03 12.03 0 0 0-4.857 3.981A12.051 12.051 0 0 0 0 11.871 11.77 11.77 0 0 0 3.659 20.4l18.195 18.451 16.767-17" data-name="Path"/><path id="Path-29" d="M14.569.5H0" data-name="Path" transform="translate(31.336 6.785)"/><path id="Path-30" d="M.5 0v14.569" data-name="Path" transform="translate(38.121)"/></g></g><g id="Icon_heart_add-21" data-name="Icon_heart_add" opacity=".16" transform="translate(331.903 93.469)"><g id="Icon_heart_add-22" fill="none" stroke="#fff" stroke-miterlimit="10" stroke-width="4" data-name="Icon_heart_add"><path id="Path-31" stroke-linecap="round" stroke-linejoin="round" d="M26.71 1.063a12.03 12.03 0 0 0-4.857 3.981A12.051 12.051 0 0 0 0 11.871 11.77 11.77 0 0 0 3.659 20.4l18.195 18.451 16.767-17" data-name="Path"/><path id="Path-32" d="M14.569.5H0" data-name="Path" transform="translate(31.336 6.785)"/><path id="Path-33" d="M.5 0v14.569" data-name="Path" transform="translate(38.121)"/></g></g><g id="Icon_heart_add-23" data-name="Icon_heart_add" opacity=".16" transform="translate(470.165 736.747)"><g id="Icon_heart_add-24" fill="none" stroke="#fff" stroke-miterlimit="10" stroke-width="4" data-name="Icon_heart_add"><path id="Path-34" stroke-linecap="round" stroke-linejoin="round" d="M26.71 1.063a12.03 12.03 0 0 0-4.857 3.981A12.051 12.051 0 0 0 0 11.871 11.77 11.77 0 0 0 3.659 20.4l18.195 18.451 16.767-17" data-name="Path"/><path id="Path-35" d="M14.569.5H0" data-name="Path" transform="translate(31.336 6.785)"/><path id="Path-36" d="M.5 0v14.569" data-name="Path" transform="translate(38.121)"/></g></g><g id="Icon_heart_add-25" data-name="Icon_heart_add" opacity=".16" transform="translate(1681.52 253.677)"><g id="Icon_heart_add-26" fill="none" stroke="#fff" stroke-miterlimit="10" stroke-width="4" data-name="Icon_heart_add"><path id="Path-37" stroke-linecap="round" stroke-linejoin="round" d="M26.71 1.063a12.03 12.03 0 0 0-4.857 3.981A12.051 12.051 0 0 0 0 11.871 11.77 11.77 0 0 0 3.659 20.4l18.195 18.451 16.767-17" data-name="Path"/><path id="Path-38" d="M14.569.5H0" data-name="Path" transform="translate(31.336 6.785)"/><path id="Path-39" d="M.5 0v14.569" data-name="Path" transform="translate(38.121)"/></g></g><g id="Icon_heart_add-27" data-name="Icon_heart_add" opacity=".16" transform="rotate(-30 1176.62 -1509.25)"><g id="Icon_heart_add-28" fill="none" stroke="#fff" stroke-miterlimit="10" stroke-width="4" data-name="Icon_heart_add"><path id="Path-40" stroke-linecap="round" stroke-linejoin="round" d="M17.613.7a7.94 7.94 0 0 0-3.2 2.625A7.946 7.946 0 0 0 0 7.828a7.76 7.76 0 0 0 2.413 5.624l12 12.167L25.466 14.41" data-name="Path"/><path id="Path-41" d="M9.607.5H0" data-name="Path" transform="translate(20.663 4.303)"/><path id="Path-42" d="M.5 0v9.607" data-name="Path" transform="translate(24.966)"/></g></g><g id="Icon_pill" opacity=".16" transform="translate(869.037 169.515)"><g id="Icon_pill-2" stroke="#fff" data-name="Icon_pill"><path id="Path-43" fill="none" stroke-miterlimit="10" stroke-width="2" d="M20.2 2.451a8.368 8.368 0 0 1 11.834 11.833l-17.75 17.75A8.368 8.368 0 0 1 2.451 20.2Z" data-name="Path"/><path id="Path-44" fill="#fff" stroke-width="1" d="M2.451 8.875a8.368 8.368 0 0 0 11.833 11.834l8.875-8.875L11.326 0Z" data-name="Path" transform="translate(0 11.326)"/></g></g><g id="Icon_pill-3" data-name="Icon_pill" opacity=".16" transform="translate(1192.22 380.726)"><g id="Icon_pill-4" stroke="#fff" data-name="Icon_pill"><path id="Path-45" fill="none" stroke-miterlimit="10" stroke-width="2" d="M13.321 1.616a5.518 5.518 0 0 1 7.8 7.8l-11.7 11.7a5.518 5.518 0 0 1-7.8-7.8Z" data-name="Path"/><path id="Path-46" fill="#fff" stroke-width="1" d="M1.616 5.852a5.518 5.518 0 0 0 7.8 7.8L15.271 7.8 7.468 0Z" data-name="Path" transform="translate(0 7.468)"/></g></g><g id="Icon_pill-5" data-name="Icon_pill" opacity=".16" transform="translate(503.895 364.273)"><g id="Icon_pill-6" stroke="#fff" data-name="Icon_pill"><path id="Path-47" fill="none" stroke-miterlimit="10" stroke-width="2" d="M13.321 1.616a5.518 5.518 0 0 1 7.8 7.8l-11.7 11.7a5.518 5.518 0 0 1-7.8-7.8Z" data-name="Path"/><path id="Path-48" fill="#fff" stroke-width="1" d="M1.616 5.852a5.518 5.518 0 0 0 7.8 7.8L15.271 7.8 7.468 0Z" data-name="Path" transform="translate(0 7.468)"/></g></g><g id="Icon_pill-7" data-name="Icon_pill" opacity=".16" transform="translate(250.657 905.213)"><g id="Icon_pill-8" stroke="#fff" data-name="Icon_pill"><path id="Path-49" fill="none" stroke-miterlimit="10" stroke-width="2" d="M13.321 1.616a5.518 5.518 0 0 1 7.8 7.8l-11.7 11.7a5.518 5.518 0 0 1-7.8-7.8Z" data-name="Path"/><path id="Path-50" fill="#fff" stroke-width="1" d="M1.616 5.852a5.518 5.518 0 0 0 7.8 7.8L15.271 7.8 7.468 0Z" data-name="Path" transform="translate(0 7.468)"/></g></g><g id="Icon_pill-9" data-name="Icon_pill" opacity=".16" transform="translate(1287.72 911.031)"><g id="Icon_pill-10" stroke="#fff" data-name="Icon_pill"><path id="Path-51" fill="none" stroke-miterlimit="10" stroke-width="2" d="M13.321 1.616a5.518 5.518 0 0 1 7.8 7.8l-11.7 11.7a5.518 5.518 0 0 1-7.8-7.8Z" data-name="Path"/><path id="Path-52" fill="#fff" stroke-width="1" d="M1.616 5.852a5.518 5.518 0 0 0 7.8 7.8L15.271 7.8 7.468 0Z" data-name="Path" transform="translate(0 7.468)"/></g></g><g id="Icon_pill-11" data-name="Icon_pill" opacity=".16" transform="translate(1805.91 513.954)"><g id="Icon_pill-12" stroke="#fff" data-name="Icon_pill"><path id="Path-53" fill="none" stroke-miterlimit="10" stroke-width="2" d="M13.321 1.616a5.518 5.518 0 0 1 7.8 7.8l-11.7 11.7a5.518 5.518 0 0 1-7.8-7.8Z" data-name="Path"/><path id="Path-54" fill="#fff" stroke-width="1" d="M1.616 5.852a5.518 5.518 0 0 0 7.8 7.8L15.271 7.8 7.468 0Z" data-name="Path" transform="translate(0 7.468)"/></g></g><g id="Icon_pill-13" data-name="Icon_pill" opacity=".16" transform="rotate(105.009 876.626 797.511)"><g id="Icon_pill-14" stroke="#fff" data-name="Icon_pill"><path id="Path-55" fill="none" stroke-miterlimit="10" stroke-width="2" d="M20.2 2.451a8.368 8.368 0 0 1 11.834 11.833l-17.75 17.75A8.368 8.368 0 0 1 2.451 20.2Z" data-name="Path"/><path id="Path-56" fill="#fff" stroke-width="1" d="M2.451 8.875a8.368 8.368 0 0 0 11.833 11.834l8.875-8.875L11.326 0Z" data-name="Path" transform="translate(0 11.326)"/></g></g><g id="Icon_pill-15" data-name="Icon_pill" opacity=".16" transform="rotate(74.991 -168.772 282.523)"><g id="Icon_pill-16" stroke="#fff" data-name="Icon_pill"><path id="Path-57" fill="none" stroke-miterlimit="10" stroke-width="2" d="M20.2 2.451a8.368 8.368 0 0 1 11.834 11.833l-17.75 17.75A8.368 8.368 0 0 1 2.451 20.2Z" data-name="Path"/><path id="Path-58" fill="#fff" stroke-width="1" d="M2.451 8.875a8.368 8.368 0 0 0 11.833 11.834l8.875-8.875L11.326 0Z" data-name="Path" transform="translate(0 11.326)"/></g></g><g id="Icon_pill-17" data-name="Icon_pill" opacity=".16" transform="rotate(210 375.665 407.523)"><g id="Icon_pill-18" stroke="#fff" data-name="Icon_pill"><path id="Path-59" fill="none" stroke-miterlimit="10" stroke-width="2" d="M20.2 2.451a8.368 8.368 0 0 1 11.834 11.833l-17.75 17.75A8.368 8.368 0 0 1 2.451 20.2Z" data-name="Path"/><path id="Path-60" fill="#fff" stroke-width="1" d="M2.451 8.875a8.368 8.368 0 0 0 11.833 11.834l8.875-8.875L11.326 0Z" data-name="Path" transform="translate(0 11.326)"/></g></g><g id="Icon_pill-19" data-name="Icon_pill" opacity=".16" transform="rotate(74.991 -90.882 1009.45)"><g id="Icon_pill-20" stroke="#fff" data-name="Icon_pill"><path id="Path-61" fill="none" stroke-miterlimit="10" stroke-width="2" d="M35.906 4.356a14.873 14.873 0 0 1 21.033 21.033L25.39 56.939A14.873 14.873 0 0 1 4.356 35.906Z" data-name="Path"/><path id="Path-62" fill="#fff" stroke-width="1" d="M4.356 15.775A14.873 14.873 0 0 0 25.39 36.808l15.774-15.775L20.131 0Z" data-name="Path" transform="translate(0 20.131)"/></g></g><g id="Icon_pill-21" data-name="Icon_pill" opacity=".16" transform="rotate(74.991 382.064 1203.77)"><g id="Icon_pill-22" stroke="#fff" data-name="Icon_pill"><path id="Path-63" fill="none" stroke-miterlimit="10" stroke-width="2" d="M20.2 2.451a8.368 8.368 0 0 1 11.834 11.833l-17.75 17.75A8.368 8.368 0 0 1 2.451 20.2Z" data-name="Path"/><path id="Path-64" fill="#fff" stroke-width="1" d="M2.451 8.875a8.368 8.368 0 0 0 11.833 11.834l8.875-8.875L11.326 0Z" data-name="Path" transform="translate(0 11.326)"/></g></g><path id="health-cross-18" fill="#fff" d="M15.75 34.5h7.5a2.5 2.5 0 0 0 2.5-2.5v-6.25H32a2.5 2.5 0 0 0 2.5-2.5v-7.5a2.5 2.5 0 0 0-2.5-2.5h-6.25V7a2.5 2.5 0 0 0-2.5-2.5h-7.5a2.5 2.5 0 0 0-2.5 2.5v6.25H7a2.5 2.5 0 0 0-2.5 2.5v7.5a2.5 2.5 0 0 0 2.5 2.5h6.25V32a2.5 2.5 0 0 0 2.5 2.5M32 15.75v7.5h-8.75V32h-7.5v-8.75H7v-7.5h8.75V7h7.5v8.75Z" data-name="health-cross" opacity=".16" transform="translate(1163.25 552.184)"/><g id="Icon_atom-15" data-name="Icon_atom" opacity=".16" transform="translate(1326.75 411.245)"><g id="Icon_atom-16" stroke="#fff" data-name="Icon_atom"><circle id="Oval-22" cx="1" cy="1" r="1" stroke-width="1" data-name="Oval" transform="translate(11.192 11.192)"/><ellipse id="Oval-23" cx="5.305" cy="11.937" fill="none" stroke-miterlimit="10" stroke-width="2" data-name="Oval" rx="5.305" ry="11.937" transform="rotate(-45 9.057 3.752)"/><ellipse id="Oval-24" cx="5.305" cy="11.937" fill="none" stroke-miterlimit="10" stroke-width="2" data-name="Oval" rx="5.305" ry="11.937" transform="rotate(45 8.441 20.378)"/></g></g><g id="Icon_heart_add-29" data-name="Icon_heart_add" opacity=".16" transform="translate(988.642 741.912)"><g id="Icon_heart_add-30" fill="none" stroke="#fff" stroke-miterlimit="10" stroke-width="4" data-name="Icon_heart_add"><path id="Path-65" stroke-linecap="round" stroke-linejoin="round" d="M26.71 1.063a12.03 12.03 0 0 0-4.857 3.981A12.051 12.051 0 0 0 0 11.871 11.77 11.77 0 0 0 3.659 20.4l18.195 18.451 16.767-17" data-name="Path"/><path id="Path-66" d="M14.569.5H0" data-name="Path" transform="translate(31.336 6.785)"/><path id="Path-67" d="M.5 0v14.569" data-name="Path" transform="translate(38.121)"/></g></g><g id="Icon_heart_add-31" data-name="Icon_heart_add" opacity=".16" transform="translate(1057.55 523.049)"><g id="Icon_heart_add-32" fill="none" stroke="#fff" stroke-miterlimit="10" stroke-width="4" data-name="Icon_heart_add" transform="translate(.001)"><path id="Path-68" stroke-linecap="round" stroke-linejoin="round" d="M17.613.7a7.94 7.94 0 0 0-3.2 2.625A7.946 7.946 0 0 0 0 7.828a7.76 7.76 0 0 0 2.413 5.624l12 12.167L25.466 14.41" data-name="Path"/><path id="Path-69" d="M9.607.5H0" data-name="Path" transform="translate(20.663 4.303)"/><path id="Path-70" d="M.5 0v9.607" data-name="Path" transform="translate(24.966)"/></g></g><g id="Icon_potion_circle" opacity=".16" transform="translate(736 452)"><g id="Icon_potion_circle-2" fill="none" stroke="#fff" stroke-miterlimit="10" stroke-width="4" data-name="Icon_potion_circle"><ellipse id="Oval-25" cx="14" cy="14.5" data-name="Oval" rx="14" ry="14.5" transform="translate(0 17)"/><path id="Path-71" stroke-linecap="round" stroke-linejoin="round" d="M0 .5h11.2" data-name="Path" transform="translate(8.4 -.5)"/><path id="Rectangle" stroke-linecap="round" stroke-linejoin="round" d="M0 0h6v17H0Z" transform="translate(11)"/></g></g><g id="Icon_potion_circle-3" data-name="Icon_potion_circle" opacity=".16" transform="rotate(30 -133.782 307.447)"><g id="Icon_potion_circle-4" fill="none" stroke="#fff" stroke-miterlimit="10" stroke-width="4" data-name="Icon_potion_circle"><ellipse id="Oval-26" cx="14" cy="14.5" data-name="Oval" rx="14" ry="14.5" transform="translate(0 17)"/><path id="Path-72" stroke-linecap="round" stroke-linejoin="round" d="M0 .5h11.2" data-name="Path" transform="translate(8.4 -.5)"/><path id="Rectangle-2" stroke-linecap="round" stroke-linejoin="round" d="M0 0h6v17H0Z" data-name="Rectangle" transform="translate(11)"/></g></g><g id="Icon_potion_circle-5" data-name="Icon_potion_circle" opacity=".16" transform="rotate(-45 1460.56 -1598.62)"><g id="Icon_potion_circle-6" fill="none" stroke="#fff" stroke-miterlimit="10" stroke-width="4" data-name="Icon_potion_circle"><ellipse id="Oval-27" cx="14" cy="14.5" data-name="Oval" rx="14" ry="14.5" transform="translate(0 17)"/><path id="Path-73" stroke-linecap="round" stroke-linejoin="round" d="M0 .5h11.2" data-name="Path" transform="translate(8.4 -.5)"/><path id="Rectangle-3" stroke-linecap="round" stroke-linejoin="round" d="M0 0h6v17H0Z" data-name="Rectangle" transform="translate(11)"/></g></g><g id="Icon_potion_circle-7" data-name="Icon_potion_circle" opacity=".16" transform="rotate(30 -749.802 3671.14)"><g id="Icon_potion_circle-8" fill="none" stroke="#fff" stroke-miterlimit="10" stroke-width="4" data-name="Icon_potion_circle"><ellipse id="Oval-28" cx="9.352" cy="9.686" data-name="Oval" rx="9.352" ry="9.686" transform="translate(0 11.357)"/><path id="Path-74" stroke-linecap="round" stroke-linejoin="round" d="M0 .5h7.482" data-name="Path" transform="translate(5.611 -.5)"/><path id="Rectangle-4" stroke-linecap="round" stroke-linejoin="round" d="M0 0h4.008v11.357H0Z" data-name="Rectangle" transform="translate(7.348)"/></g></g><g id="Icon_pulse" opacity=".16" transform="translate(904 471)"><g id="Icon_pulse-2" data-name="Icon_pulse"><path id="Path-75" fill="none" stroke="#fff" stroke-linecap="round" stroke-linejoin="round" stroke-miterlimit="10" stroke-width="2" d="M0 19.286h4.444L8.889 8.571l4.444 12.857L20 0l6.667 30 2.222-10.714H40" data-name="Path"/></g></g><g id="Icon_pulse-3" data-name="Icon_pulse" opacity=".16" transform="translate(46 60)"><g id="Icon_pulse-4" data-name="Icon_pulse"><path id="Path-76" fill="none" stroke="#fff" stroke-linecap="round" stroke-linejoin="round" stroke-miterlimit="10" stroke-width="4" d="M0 19.286h4.444L8.889 8.571l4.444 12.857L20 0l6.667 30 2.222-10.714H40" data-name="Path"/></g></g><g id="Icon_pulse-5" data-name="Icon_pulse" opacity=".16" transform="matrix(-1 0 0 -1 236 490)"><g id="Icon_pulse-6" data-name="Icon_pulse"><path id="Path-77" fill="none" stroke="#fff" stroke-linecap="round" stroke-linejoin="round" stroke-miterlimit="10" stroke-width="4" d="M0 19.286h4.444L8.889 8.571l4.444 12.857L20 0l6.667 30 2.222-10.714H40" data-name="Path"/></g></g><g id="Icon_pulse-7" data-name="Icon_pulse" opacity=".16" transform="matrix(-1 0 0 -1 1055 964)"><g id="Icon_pulse-8" data-name="Icon_pulse"><path id="Path-78" fill="none" stroke="#fff" stroke-linecap="round" stroke-linejoin="round" stroke-miterlimit="10" stroke-width="4" d="M0 19.286h4.444L8.889 8.571l4.444 12.857L20 0l6.667 30 2.222-10.714H40" data-name="Path"/></g></g><g id="Icon_pulse-9" data-name="Icon_pulse" opacity=".16" transform="matrix(-1 0 0 -1 1874 665)"><g id="Icon_pulse-10" data-name="Icon_pulse"><path id="Path-79" fill="none" stroke="#fff" stroke-linecap="round" stroke-linejoin="round" stroke-miterlimit="10" stroke-width="4" d="M0 19.286h4.444L8.889 8.571l4.444 12.857L20 0l6.667 30 2.222-10.714H40" data-name="Path"/></g></g></g></svg>