<svg xmlns="http://www.w3.org/2000/svg" width="1024" height="219" viewBox="0 0 1024 219"><style>.a{fill:#fff}</style><path d="M275 143.8q-11.9 10.8-29.1 10.8t-29-10.7q-11.8-10.8-11.8-28.2V58h20.3v56.9q0 9.2 5.9 15.2 6 5.9 14.6 5.9 8.7 0 14.6-5.9 5.9-6 5.9-15.2V58h20.4v57.7q0 17.2-11.8 28.1M305.9 153.2V58h22.4l24.9 37.5q3 4.5 7 10.6 4.1 6 6.6 9.8l2.7 4.1V58h20.6v95.2h-21.8l-23.8-35.6q-3.9-5.7-8.4-12.6-4.6-6.8-7.3-10.8l-2.3-4v63ZM410.7 58h20.5v95.2h-20.5ZM451.8 153.2V58h22.5l24.8 37.5q3 4.5 7.1 10.6 4 6 6.5 9.8l2.7 4.1V58H536v95.2h-21.8l-23.8-35.6q-3.9-5.7-8.4-12.6-4.6-6.8-7.3-10.8l-2.3-4v63Z" class="a"/><path fill-rule="evenodd" d="M547 153.2 588.2 58h20.7l40.1 95.2h-19.7l-6.3-15.1h-48.3l-6.5 15.1Zm34.6-31.3h34.6l-7.4-17.8-10.2-24.3q-5 14.6-9.5 24.6Z" class="a"/><path d="m656.9 141.7 7.4-15.8q14.7 10.5 31.4 10.5 7.5 0 12.9-3.3 5.5-3.3 5.5-8.1 0-4.7-4.6-7.2-4.7-2.5-13.1-4.3-6.1-1.4-10.6-2.7-4.5-1.2-9.6-3.7-5.2-2.4-8.4-5.3t-5.4-7.5q-2.2-4.5-2.2-10.3 0-13 10.4-20.2t25.1-7.2q19.6 0 34.8 10.1L723 82.6q-12.6-7.8-27.3-7.8-5.3 0-10.1 2-4.7 2.1-4.7 7.1 0 4.2 4.2 6.5 4.3 2.3 13.4 4.2 36.3 8.1 36.3 30.4 0 14.4-11.7 22t-27.5 7.6q-23.1 0-38.7-12.9M746.6 141.7l7.3-15.8q14.7 10.5 31.4 10.5 7.5 0 13-3.3 5.4-3.3 5.4-8.1 0-4.7-4.6-7.2t-13-4.3q-6.2-1.4-10.7-2.7-4.5-1.2-9.6-3.7-5.1-2.4-8.4-5.3-3.2-2.9-5.4-7.5-2.2-4.5-2.2-10.3 0-13 10.4-20.2t25.1-7.2q19.6 0 34.9 10.1l-7.5 15.9q-12.7-7.8-27.4-7.8-5.2 0-10 2-4.8 2.1-4.8 7.1 0 4.2 4.3 6.5 4.2 2.3 13.3 4.2 36.3 8.1 36.3 30.4 0 14.4-11.7 22-11.6 7.6-27.5 7.6-23.1 0-38.6-12.9" class="a"/><path fill-rule="evenodd" d="M831 153.2 872.3 58h20.6l40.1 95.2h-19.7l-6.3-15.1h-48.3l-6.5 15.1Zm34.6-31.3h34.6l-7.4-17.8-10.2-24.3q-5 14.6-9.4 24.6Z" class="a"/><path d="M1010.8 143.8q-11.8 10.8-29 10.8t-29-10.7Q941 133.1 941 115.7V58h20.2v56.9q0 9.2 6 15.2 5.9 5.9 14.6 5.9t14.5-5.9q5.9-6 5.9-15.2V58h20.5v57.7q-.1 17.2-11.9 28.1" class="a"/><path fill-rule="evenodd" d="M160.9 158.9c0 5.2-1.1 10.3-3.2 15.1-2.7 6.2-8.3 11.9-16.1 16.5-6.1 3.5-13.6 6.3-20.6 7.6-22.2 4.3-31.5 7.5-34.5 11.8l-1.9 2.7-3.7 5.4-3.7-5.4-1.9-2.7c-3-4.3-12.3-7.5-34.5-11.8-7-1.3-14.5-4.1-20.6-7.6-7.8-4.6-13.4-10.3-16.1-16.5C2 169.2.9 164.1.9 158.9V1.8h49.8v7.1H56V1.8h49.8v7.1h5.3V1.8h49.8ZM115.6 6.4v7.1h-14.3V6.4H60.5v7.1H46.2V6.4H5.4v152.5c0 4.6 1 9.1 2.8 13.3 2.4 5.4 7.3 10.3 14.3 14.4 5.7 3.3 12.7 5.9 19.2 7.1 24.1 4.7 33.5 8.1 37.3 13.6l1.9 2.8 1.9-2.8c3.8-5.5 13.2-8.9 37.3-13.6 6.6-1.2 13.5-3.8 19.2-7.1 7-4.1 11.9-9 14.3-14.4 1.8-4.2 2.8-8.7 2.8-13.3V6.4Z" class="a"/><path d="M67 25.8q-.9-.9-2.3-.9h-3.3v6h3.3q1.4 0 2.3-.9.9-.8.9-2.1t-.9-2.1" class="a"/><path fill-rule="evenodd" d="M154.1 8.6v33.8H7.7V8.6h36.2v7.1h18.9V8.6H99v7.1h18.9V8.6ZM27.6 22.9h-2.4L22 30.4q-.4.9-1 2.9l-1.1-2.9-3.1-7.5h-2.4l5.4 13.2h2.3ZM48.4 34h-8.2v-3.9h7.4v-2h-7.4v-3.2h7.9v-2H37.9V36h10.5Zm22.2 2.1-2.9-3.9q1.3-.6 2-1.7.7-1.2.7-2.6 0-2.2-1.5-3.6t-4.3-1.4H59v13.2h2.4v-3.2h4l2.3 3.2Zm13.1-13.2h-2.3v13.2h2.3Zm22.1 0H94.1v2h4.7V36h2.3V24.9h4.7Zm21.5 13.2-5.9-13.2h-2.2l-6 13.2h2.4l1.1-2.3h7.2l1 2.3Zm20.2-3.8q0-.9-.4-1.6-.4-.8-1.2-1.2-.7-.5-1.5-.7-.8-.3-1.9-.6-1.4-.4-2.1-.7-.6-.4-.6-1.1 0-.6.4-.9.4-.4.9-.5.5-.2 1.1-.2 2 0 3.7 1.1l.9-1.8q-2.1-1.4-4.6-1.4-2 0-3.4 1t-1.4 2.7q0 .8.3 1.4t.7 1 1.1.7 1.3.5 1.5.4q.8.2 1.3.4.5.1 1 .5.4.4.4 1 0 .8-.8 1.3-.9.5-2 .5-2.5 0-4.4-1.5l-.9 1.8q2 1.9 5.2 1.9 2.2 0 3.8-1.1 1.6-1 1.6-2.9" class="a"/><path d="m120.4 25.9-.2-.5q-.6 1.8-1.2 3.2l-1.5 3.3h5.6l-1.5-3.4q-.3-.5-.6-1.3-.4-.8-.6-1.3M65.4 110l-.2-.2c.9-2.4 2.3-2.7 4.6-2.6Z" class="a"/><path fill-rule="evenodd" d="M154.1 44.1v114.8c0 4.2-.9 8.4-2.6 12.3-4.8 10.9-20.1 18-31.8 20.3-23.4 4.5-34.3 8-38.8 14.5-4.5-6.5-15.3-10-38.8-14.5-11.6-2.3-27-9.4-31.8-20.3-1.7-3.9-2.6-8.1-2.6-12.3V44.1h146.4M45.3 98.4l2.3 13.9 2.3-13.9 4.7 7.4-.5-8.8 6.9 5.6-3.2-8.3 8.2 3.3-5.6-6.9 8.8.5-7.4-4.8L80 84.2l-18.2-2.3 7.4-4.7-8.8.5 5.6-6.9-8.2 3.2 3.2-8.2-6.9 5.6.5-8.8-4.7 7.4-2.3-13.9L45.3 70l-4.7-7.4.5 8.8-6.9-5.6 3.2 8.2-8.2-3.2 5.6 6.9-8.8-.5 7.4 4.7-18.2 2.3 18.2 2.2-7.4 4.8 8.8-.5-5.6 6.9 8.2-3.3-3.2 8.3 6.9-5.6-.5 8.8Zm101.2-23.5c-3.6 4.6-8.9 10.3-16.4 15.6-5 3.5-9.8 6.1-13.9 7.9 3.3-1.6 9.3-5 14.3-11.6 7.2-9.7 7.5-20 7.5-23.5-3.3 7.8-9 17.3-19 24.6q-1.8 1.3-3.6 2.4c2.2-1.7 6.9-5.8 9.4-12.9 3.7-10.6-.6-19.9-1.5-21.8.1 3.8-.3 10.5-3.8 17.8-2 4.2-4.5 7.4-6.5 9.6 1.1-2.5 2.4-6.2 2.5-10.9.1-9.8-5.1-16.7-6.9-18.9 1 4.8 1.7 11.4.6 19-.4 3.1-1 5.8-1.8 8.2 0-2.5-.3-6.1-1.9-9.9-4-9.6-12.7-13.6-15.1-14.6 2.3 4 4.5 8.8 6.4 14.5q1.1 3.7 1.9 7.1c-1.3-2.1-4.1-6.4-9.4-9.5-6.7-4-13.3-3.8-15.7-3.6 9.7 4.8 15.1 11.2 17.6 14.7 7.2 10 13.3 26.9 6.5 40.9-1.8 3.7-4.1 6.3-5.6 7.9q-.4-.8-.8-1.5c-.3-.5-.5-.9-.8-1.4.4.3.8.7 1.3 1 .6-3.8.1-6.8-1.8-10.1l2.4 1.6c-.8-4.5-3.2-7.3-6.5-10.2 1.5.2 2.9.7 4.3 1-3-4.8-7.5-5.8-12.7-6.2q1.7-1.1 3.5-2.2c-7.4-.6-19.5-1.3-17.9 9.5-5.1 1.5-8.1 5.2-3.9 9.8 0-.2-.2-.4-.1-.7 1.8-2.4 6.4-1.9 9.2-1.9 0 .3-.7.9-.4 1.2.1.1.8.9.9 1.4s-.5 1.5-.6 1.7c-7.4 8.7-12.7 22.2-11.4 33.6 1.3-1.8 2.3-3.8 3.3-5.8-.7 4.1-1.3 8.1-2.8 12 1.6-.4 2.7-1.2 3.7-2.5-3.7 10.4-15.9 16-15.6 19.7l1-1c.2 0 .8.1 1.5-.1.6-.2 1-.6 1.2-.8-.2 1.2-.4 2.3.3 3.4q.8-.7 1.6-1.5c1.5 0 1.8-1.4 2.6-2.3-.4 1.5-.7 2.6.4 3.8q1.1-.9 2.1-1.7c.3 0 .7 0 .9-.1.8-.4 1.2-.8 1.4-1.6 1.6-.5 3-.5 4.4.5.5.4.7 1 .9 1.5 1.7-2.2.5-4.7-2-5.4-2.5-2.7 2.6-9.1 4.3-11.4.1 1.7-.5 2.9-1.4 4.4 2.3-1 3.8-2.4 5.3-4.4 3.9 3.7 7.6 7.4 12.1 10.3 2.9-.2 5.4.4 7.5 1.5-4.1-.1-8.6-1-10.4 3.7-.5-1.9-.1-3.2 1.1-4.7-2.1-1.4-6.1-1.9-7.8-.8-3.1 1.9-3.8 5.6-2.1 8.2.5.8 1.2 0 1.8.2-.4-2-.2-4 1.4-5.2.7-.6 2-.6 2-.6-.5.4-.9.7-1.2 1.4-.7 1.4-.9 3.4.5 4.5.3.2.7.1 1 .1 10.6-.1 21.1-.1 31.7-.3.5 0 1.3.2 1.5-.5.3-1 1.6-2.2 1.7-2.2 3.4-1.2 6.2-2.1 8.1-5.6 3.9-14.1-14.3-20.3-2.6-22.8-.2.5-.6.8-.8 1.2 2.8.1 5.1-1.6 4.3-4.7-.3-1.3-1.1-2.6-1.1-4 2.3-5.3 5.7-3.3 1.4-10.2-.7-1.2-2 3.6-3.4 4.4.2-.8.6-1.5 1-2.3-2.4 1.3-4.9 1.9-5 5.7-.1 4 5.1 7.3-2.2 7.1-8.5 8.3 9.2 11.1 5 23.6-.8 1-1.9 1.3-3.1 1.1-.9-.8-.3-2.1-.5-3.3-1.5-8.9-5.4-15.9-13.4-19.7 4.3-1.3 7.7-3.6 10.6-7.2-3.4.3-6.6.3-10-.3 6.9-.4 12.9-2 16.4-8.7-4.4.3-8.3-.3-12.5-1.5 12.8 1.2 29.4-4 33.4-13.7-9.2 4-19.7 8.4-29.7 7 11.3-1.6 28.7-6.6 33.9-20-5.4 4.6-15.3 10.3-29 11 .1 0 29.3-6.5 32.3-23.5-14.5 12.6-29.1 16.7-29.1 16.7s31.8-15.4 31.8-32.2m-35 39" class="a"/><path d="m65.2 109.8.2.2 4.4-2.8c-2.3-.1-3.7.2-4.6 2.6M47.6 91.2c-3.9 0-7.1-3.1-7.1-7s3.2-7.1 7.1-7.1 7.1 3.2 7.1 7.1-3.2 7-7.1 7" class="a"/></svg>